<?xml version="1.0" encoding="UTF-8" standalone="no"?>
<!-- Generator: Adobe Illustrator 21.1.0, SVG Export Plug-In . SVG Version: 6.00 Build 0)  -->

<svg
   xmlns:dc="http://purl.org/dc/elements/1.1/"
   xmlns:cc="http://creativecommons.org/ns#"
   xmlns:rdf="http://www.w3.org/1999/02/22-rdf-syntax-ns#"
   xmlns:svg="http://www.w3.org/2000/svg"
   xmlns="http://www.w3.org/2000/svg"
   xmlns:sodipodi="http://sodipodi.sourceforge.net/DTD/sodipodi-0.dtd"
   xmlns:inkscape="http://www.inkscape.org/namespaces/inkscape"
   version="1.1"
   id="Слой_1"
   x="0px"
   y="0px"
   viewBox="0 0 142 77"
   style="enable-background:new 0 0 142 77;"
   xml:space="preserve"
   inkscape:version="0.48.5 r10040"
   width="100%"
   height="100%"
   sodipodi:docname="Miniso_international_logo.svg"><metadata
   id="metadata3023"><rdf:RDF><cc:Work
       rdf:about=""><dc:format>image/svg+xml</dc:format><dc:type
         rdf:resource="http://purl.org/dc/dcmitype/StillImage" /><dc:title></dc:title></cc:Work></rdf:RDF></metadata><defs
   id="defs3021">
	
	

		
		
		
		
	</defs><sodipodi:namedview
   pagecolor="#e61523"
   bordercolor="#666666"
   borderopacity="1"
   objecttolerance="10"
   gridtolerance="10"
   guidetolerance="10"
   inkscape:pageopacity="0"
   inkscape:pageshadow="2"
   inkscape:window-width="1280"
   inkscape:window-height="657"
   id="namedview3019"
   showgrid="false"
   inkscape:zoom="4.3161063"
   inkscape:cx="70.744998"
   inkscape:cy="46.51185"
   inkscape:window-x="-8"
   inkscape:window-y="-8"
   inkscape:window-maximized="1"
   inkscape:current-layer="Слой_1" />
<style
   type="text/css"
   id="style3006">
	.st0{fill:#FFFFFF;}
	.st1{fill:#E61523;}
</style>
<path
   class="st1"
   d="m 27.6,50.2 c 0,0 0,0 0,0 l 0,0 0,0 c -0.1,0 -0.1,0 -0.2,0 -2.5,0.1 -3.1,2.8 -3.1,6.7 0,2.9 0.7,6 3.2,6.1 l 0,0 v 0 c 2.5,0 3.1,-3.2 3.2,-6.1 0.1,-3.8 -0.5,-6.5 -3.1,-6.7 z"
   id="path3013"
   style="fill:#ffffff"
   inkscape:connector-curvature="0" /><path
   style="fill:#ffffff"
   d="M 22.1875,0 18.5,3.59375 l 0,5.71875 -18.5,0 0,68 62.3125,0 0,-68 -18.40625,0 0,-5.71875 L 40.3125,0 22.1875,0 z m 0,3.59375 18.125,0 0,5.71875 -18.125,0 0,-5.71875 z m 6.125,21 3.78125,0 0,16.5 -3.78125,0 0,-16.5 z M 35,24.6875 l 2.09375,0 8.09375,9.8125 0,-9.8125 2.71875,0 0,16.40625 -1.59375,0 -8.625,-10 0,10 -2.6875,0 0,-16.40625 z m 15.6875,0 4,0 0,16.40625 -4,0 0,-16.40625 z m -43.28125,0.125 2.90625,0 6.1875,11.78125 6.1875,-11.78125 2.71875,0 0,16.1875 -3.59375,0 0,-9 -5,9.09375 -2.125,0 -4.59375,-9.1875 0,9.09375 -2.6875,0 0,-16.1875 z M 39,47.59375 c 1.1,0 2.09375,0.89375 2.09375,2.09375 0,1.2 -0.89375,2.125 -2.09375,2.125 -1.1,0 -2.09375,-0.925 -2.09375,-2.125 0,-1.2 0.89375,-2.09375 2.09375,-2.09375 z m -11.40625,0.3125 c 1.9,0 3.30625,0.39375 4.40625,1.59375 1.7,1.6 2.50625,4.10625 2.40625,7.40625 -0.2,4.7 -2.0125,8.5 -6.8125,8.5 -4.9,0 -6.58125,-3.7 -6.78125,-8.5 -0.1,-3.3 0.675,-5.80625 2.375,-7.40625 1.1,-1.1 2.50625,-1.59375 4.40625,-1.59375 z M 46.1875,48 l 8.5,0 0,2.6875 -8.5,0 0,-2.6875 z M 13.75,48.03125 c 1.7625,-0.025 3.5125,0.2625 4.5625,0.5625 L 17.8125,51 c -0.9,-0.5 -6.6,-1.40625 -7,1.09375 -0.3,1.7 2.29375,2.49375 3.59375,3.09375 1.7,0.7 3.29375,1.70625 4.09375,2.90625 0.8,1.2 1.0875,4.3 -1.3125,6 -2.6,1.9 -7.18125,1.5 -9.78125,0.5 L 7.90625,62 c 1.3,0.6 3.3875,0.9125 5.1875,0.8125 2.2,-0.2 3.09375,-1.925 2.09375,-3.125 -1,-1.4 -4.6875,-1.775 -6.6875,-3.875 -1.7,-1.8 -1.2,-5.00625 0.5,-6.40625 1.2,-1 2.9875,-1.35 4.75,-1.375 z M 36.40625,55.5 l 2.5,0 0,0.40625 c 0,3.8 2.98125,6.90625 6.78125,6.90625 3.8,0 6.8125,-3.10625 6.8125,-6.90625 l 0,-0.40625 2.5,0 0,0.40625 c 0,5.2 -4.2125,9.5 -9.3125,9.5 -5.1,0 -9.28125,-4.2 -9.28125,-9.5 l 0,-0.40625 z"
   id="path3015"
   inkscape:connector-curvature="0" /><path
   inkscape:connector-curvature="0"
   style="fill:#ffffff"
   id="path3017"
   d="M 123.6,9.3 V 3.6 L 120,0 H 101.9 L 98.2,3.6 V 9.3 H 79.7 v 68 H 142 v -68 h -18.4 z m 6.1,12.2 2.7,2.2 c -1.4,1.9 -3.4,3.7 -6.4,5.7 v 13.3 h -3.4 v -12 c -2.5,0.7 -4.8,1.2 -7.4,1.6 l -0.1,-3.7 c 6.6,-0.7 10.4,-2.4 14.6,-7.1 z M 101.9,3.6 H 120 V 9.3 H 101.9 V 3.6 z M 90,48.1 93.5,46.4 c 1.2,2.3 2.3,5.1 3.5,8.3 L 93.4,56 C 92.3,53.3 91.3,50.6 90,48.1 z m 16.5,7.1 c -1.6,4.1 -4.7,7.5 -10.9,11.7 l -2.1,-3.3 c 7.7,-4.7 10,-8.2 11.1,-16.7 l 3.8,0.4 c -0.4,3 -1,5.6 -1.9,7.9 z M 109.7,39 c -2,-1.7 -4.4,-3.5 -7.2,-4.9 -3.3,4.7 -7.2,7.2 -13.4,9.3 L 88,39.7 c 4.4,-1.6 8.6,-3.5 11.1,-7.6 -2.9,-1.4 -5.6,-2.8 -8,-3.6 L 92.5,25 c 2.6,1 5.5,2.3 8.3,3.9 0.8,-2 1.3,-4.5 1.4,-6.9 l 4,0.1 c -0.3,3 -0.9,5.8 -2.1,8.6 3.3,1.8 6.1,3.7 8.1,5.4 l -2.5,2.9 z m 23.1,14.4 c 0,3.1 -0.4,5.7 -0.9,6.6 -2.1,4.2 -6.6,5.8 -11.3,6 l -0.7,-4.1 c 3.9,-0.1 6.6,-1.2 8.1,-3.4 1,-1.5 1,-3 1,-5.8 h -10.6 v 2.8 l -3.6,-0.1 v -6.9 h 7 V 46 h 3.8 v 2.5 h 7.2 v 4.9 z"
   class="st1" />
</svg>